<svg xmlns="http://www.w3.org/2000/svg" width="206" height="206" fill="none" viewBox="0 0 206 206">
    <g clip-path="url(#clip0)">
        <path fill="#172A79" d="M54.705 98.811c9.778 16.477 27.745 27.525 48.295 27.525s38.517-11.048 48.295-27.525h-96.59z"/>
        <path fill="#172A79" d="M102.999 102.999c54.663 0 98.976-14.765 98.976-32.98 0-18.214-44.313-32.98-98.976-32.98S4.023 51.806 4.023 70.02c0 18.215 44.313 32.98 98.976 32.98z"/>
        <path fill="#FFA800" d="M103 4.023c-22.221 0-40.234 18.014-40.234 40.234v14.18c0 3.371 2.263 6.322 5.518 7.196 22.741 6.107 46.69 6.107 69.431 0 3.256-.874 5.519-3.825 5.519-7.196v-14.18c0-22.22-18.013-40.234-40.234-40.234z"/>
        <path fill="#38C046" d="M17.293 156.907l13.269-13.269-13.27-13.269-13.268 13.269 13.269 13.269z"/>
        <path fill="#44C7F1" d="M187.57 48.33c-10.282-5.208-24.433-9.346-41.026-12.01C142.793 15.691 124.695 0 103.001 0 81.306 0 63.208 15.691 59.457 36.32c-16.59 2.663-30.738 6.8-41.02 12.008C3.2 56.044.002 64.382.002 70.02c0 10.834 10.976 20.218 31.741 27.137 6.218 2.072 13.098 3.839 20.473 5.282 5.167 8.125 12.247 14.943 20.575 19.791 9.136 5.318 19.583 8.129 30.211 8.129s21.075-2.811 30.211-8.129c8.328-4.848 15.408-11.666 20.576-19.791 7.374-1.443 14.254-3.21 20.472-5.282 20.765-6.919 31.741-16.303 31.741-27.137-.001-5.635-3.199-13.973-18.431-21.69zM66.79 44.258c0-19.966 16.244-36.21 36.211-36.21 19.966 0 36.21 16.244 36.21 36.21v14.18c0 1.548-1.044 2.909-2.539 3.31-22.028 5.915-45.315 5.916-67.344 0-1.495-.401-2.539-1.762-2.539-3.31v-14.18zM103 122.312c-15.141 0-29.51-6.707-39.32-17.948 12.289 1.742 25.6 2.659 39.32 2.659 13.719 0 27.031-.917 39.319-2.659-9.81 11.241-24.179 17.948-39.319 17.948zm68.714-32.79c-6.293 2.098-13.309 3.87-20.864 5.294-.199.022-.396.056-.589.108-14.267 2.644-30.425 4.052-47.261 4.052-16.838 0-32.997-1.408-47.264-4.052-.19-.05-.386-.085-.583-.107-7.557-1.424-14.574-3.196-20.868-5.294C17.856 84.05 8.048 76.758 8.048 70.02c0-8.265 15.903-19.535 50.695-25.427v13.844c0 5.181 3.494 9.738 8.498 11.082C78.938 72.659 90.97 74.23 103 74.23c12.031 0 24.063-1.57 35.759-4.711 5.004-1.344 8.499-5.901 8.499-11.082V44.593c34.792 5.892 50.695 17.162 50.695 25.427 0 6.737-9.808 14.028-26.238 19.503zM181.193 126.963c-6.655 0-12.07 5.415-12.07 12.07 0 6.656 5.415 12.07 12.07 12.07 6.656 0 12.071-5.414 12.071-12.07 0-6.655-5.415-12.07-12.071-12.07zm0 16.094c-2.218 0-4.023-1.805-4.023-4.024 0-2.218 1.805-4.023 4.023-4.023 2.219 0 4.024 1.805 4.024 4.023 0 2.219-1.805 4.024-4.024 4.024z"/>
        <path fill="#FFA800" d="M103 83.285c-1.058 0-2.096.43-2.845 1.179-.748.748-1.178 1.786-1.178 2.844 0 1.058.43 2.096 1.178 2.845.749.748 1.787 1.179 2.845 1.179 1.058 0 2.096-.43 2.844-1.18.749-.748 1.179-1.786 1.179-2.844 0-1.058-.43-2.096-1.179-2.844-.748-.749-1.786-1.18-2.844-1.18zM29.842 61.534c-1.062 0-2.096.43-2.844 1.179-.748.748-1.18 1.782-1.18 2.845 0 1.058.431 2.096 1.18 2.844.748.748 1.782 1.179 2.844 1.179 1.058 0 2.093-.43 2.845-1.179.748-.748 1.179-1.786 1.179-2.844 0-1.063-.43-2.097-1.18-2.845-.748-.748-1.786-1.179-2.844-1.179zM176.158 61.534c-1.058 0-2.096.427-2.845 1.175-.748.752-1.179 1.786-1.179 2.849 0 1.058.43 2.096 1.179 2.844.749.748 1.787 1.179 2.845 1.179 1.062 0 2.096-.43 2.844-1.179.748-.748 1.179-1.786 1.179-2.844 0-1.063-.43-2.097-1.179-2.85-.748-.747-1.783-1.174-2.844-1.174zM146.32 79.012c-1.063 0-2.096.426-2.845 1.175-.752.752-1.179 1.786-1.179 2.844 0 1.062.427 2.1 1.179 2.849.749.748 1.783 1.179 2.845 1.179 1.058 0 2.096-.43 2.844-1.18.748-.752 1.179-1.786 1.179-2.848 0-1.054-.43-2.092-1.179-2.844-.752-.749-1.786-1.175-2.844-1.175zM59.68 79.008c-1.059 0-2.096.43-2.845 1.179-.748.752-1.179 1.786-1.179 2.844 0 1.062.43 2.1 1.18 2.845.748.752 1.785 1.183 2.844 1.183 1.062 0 2.096-.43 2.844-1.183.752-.749 1.18-1.783 1.18-2.845 0-1.054-.428-2.092-1.18-2.844-.748-.749-1.782-1.18-2.844-1.18z"/>
        <path fill="#fff" d="M78.993 48.268c2.222 0 4.024-1.815 4.024-4.038v-.074c0-2.222-1.802-4.01-4.023-4.01-2.223 0-4.024 1.815-4.024 4.037v.074c0 2.223 1.801 4.01 4.023 4.01zM81.155 33.508c.712.512 1.534.759 2.348.759 1.25 0 2.482-.581 3.268-1.673 3.752-5.21 9.82-8.32 16.229-8.32 2.222 0 4.023-1.8 4.023-4.023 0-2.222-1.801-4.023-4.023-4.023-8.99 0-17.498 4.36-22.758 11.664-1.299 1.803-.89 4.317.913 5.616z"/>
        <path fill="url(#paint0_linear)" d="M143.234 124.928c-30.578 18.306-50.293 16.898-80.67.201l-27.962 76.445 138.205-.402-29.573-76.244z"/>
        <path fill="#38C046" d="M33.408 140.791l-13.27-13.27c-.754-.754-1.777-1.178-2.844-1.178s-2.09.424-2.845 1.178l-13.27 13.27c-1.572 1.571-1.572 4.119 0 5.69l13.27 13.27c.754.754 1.777 1.178 2.844 1.178s2.09-.424 2.845-1.178l13.27-13.27c1.571-1.571 1.571-4.119 0-5.69zm-16.115 10.425l-7.58-7.58 7.58-7.58 7.58 7.58-7.58 7.58z"/>
        <path fill="#F75245" d="M201.976 181.834c-1.059 0-2.097.43-2.845 1.179-.748.748-1.179 1.786-1.179 2.844 0 1.058.43 2.096 1.179 2.845.749.748 1.786 1.178 2.845 1.178 1.058 0 2.096-.43 2.844-1.178.748-.749 1.179-1.787 1.179-2.845 0-1.058-.43-2.096-1.179-2.844-.748-.748-1.787-1.179-2.844-1.179z"/>
    </g>
    <defs>
        <linearGradient id="paint0_linear" x1="113.866" x2="111.5" y1="124.928" y2="202" gradientUnits="userSpaceOnUse">
            <stop stop-color="#77D4F2"/>
            <stop offset="1" stop-color="#fff" stop-opacity="0"/>
        </linearGradient>
        <clipPath id="clip0">
            <path fill="#fff" d="M0 0H206V206H0z"/>
        </clipPath>
    </defs>
</svg>
