<svg width="32" height="32" viewBox="0 0 32 32" fill="none" xmlns="http://www.w3.org/2000/svg">
<circle cx="16" cy="16" r="16" fill="#0C0F1B"/>
<path d="M8 24V11.1429H10.5714V8.57143H13.1429V6H20.8571V8.57143H23.4286V11.1429H26V24H20.8571V18.8571H13.1429V24H8ZM13.1429 16.2857H20.8571V11.1429H18.2857V8.57143H15.7143V11.1429H13.1429V16.2857Z" fill="#44C7F1"/>
<path d="M6 24V11.1429H8.71429V8.57143H11.4286V6H19.5714V8.57143H22.2857V11.1429H25V24H19.5714V18.8571H11.4286V24H6ZM11.4286 16.2857H19.5714V11.1429H16.8571V8.57143H14.1429V11.1429H11.4286V16.2857Z" fill="#F75245"/>
<path d="M7 24V11.1429H9.57143V8.57143H12.1429V6H19.8571V8.57143H22.4286V11.1429H25V24H19.8571V18.8571H12.1429V24H7ZM12.1429 16.2857H19.8571V11.1429H17.2857V8.57143H14.7143V11.1429H12.1429V16.2857Z" fill="white"/>
</svg>
