<svg xmlns="http://www.w3.org/2000/svg" width="56" height="56" fill="none" viewBox="0 0 56 56">
    <path fill="#38C046" d="M46.375 33.432v-8.057c0-.989-.342-1.892-.898-2.625h.023c1.447 0 2.625-1.178 2.625-2.625v-5.25c0-2.412-1.963-4.375-4.375-4.375H41.9C39.771 4.885 34.353.875 28 .875c-6.352 0-11.771 4.01-13.9 9.625h-1.85c-2.412 0-4.375 1.963-4.375 4.375v5.25c0 1.447 1.178 2.625 2.625 2.625h.023c-.556.733-.898 1.636-.898 2.625v8.057c-2.16 1.788-3.5 4.48-3.5 7.416v14.277h43.75V40.848c0-2.937-1.34-5.627-3.5-7.416zm-1.75-8.057v6.908c-.597-.305-1.228-.558-1.895-.736l-5.98-1.594v-2.2c1.803-1.318 3.307-3.022 4.368-5.002H42c1.447-.001 2.625 1.177 2.625 2.624zM28 34.125c.29 0 .583-.006.875-.017v19.267h-1.75V34.108c.292.01.584.017.875.017zm0-1.75c-4.594 0-7-1.3-7-1.75v-1.757c2.088 1.118 4.47 1.757 7 1.757 2.53 0 4.912-.639 7-1.757v1.757c0 .45-2.406 1.75-7 1.75zm-12.855-13.97c.298-1.482.836-2.866 1.576-4.11-.062.481-.096.966-.096 1.455 0 6.272 5.103 11.375 11.375 11.375s11.375-5.103 11.375-11.375c0-.49-.035-.975-.096-1.456.74 1.244 1.278 2.63 1.576 4.112C39.623 24.374 34.327 28.875 28 28.875c-6.327 0-11.623-4.501-12.855-10.47zM28 7.876c3.096 0 5.977 1.09 8.248 2.927.897 1.492 1.377 3.197 1.377 4.948 0 5.307-4.318 9.625-9.625 9.625s-9.625-4.318-9.625-9.625c0-1.748.478-3.454 1.372-4.944 2.271-1.84 5.155-2.931 8.253-2.931zm15.75 4.375c1.447 0 2.625 1.178 2.625 2.625v5.25c0 .482-.393.875-.875.875h-3.6c.62-1.635.975-3.4.975-5.25 0-1.207-.16-2.376-.433-3.5h1.308zm-2.8 1.46c-1.875-3.33-4.978-5.824-8.647-6.936l1.21-2.919c3.894 1.812 6.748 5.473 7.437 9.855zM31.883 3.212l-1.3 3.14c-.84-.148-1.704-.227-2.583-.227-.878 0-1.74.079-2.58.227l-1.285-3.144c1.223-.378 2.52-.583 3.865-.583 1.352 0 2.656.206 3.883.587zm-9.377.634l1.196 2.926c-3.67 1.112-6.775 3.606-8.651 6.938.688-4.388 3.55-8.054 7.455-9.864zM9.625 20.125v-5.25c0-1.447 1.178-2.625 2.625-2.625h1.308c-.273 1.124-.433 2.293-.433 3.5 0 1.85.355 3.615.975 5.25h-3.6c-.482 0-.875-.393-.875-.875zm1.75 5.25c0-1.447 1.178-2.625 2.625-2.625h.882c1.061 1.981 2.565 3.685 4.368 5.002v2.2l-5.98 1.595c-.667.178-1.298.43-1.895.736v-6.908zm-3.5 19.25h.875c.482 0 .875.393.875.875V49c0 .482-.393.875-.875.875h-.875v-5.25zm0 7h.875c1.447 0 2.625-1.178 2.625-2.625v-3.5c0-1.447-1.178-2.625-2.625-2.625h-.875v-2.027c0-3.563 2.405-6.691 5.846-7.61l5.867-1.564c.837 1.26 3.17 2.01 5.787 2.304v19.397h-10.5v-9.412c0-2.628-1.023-5.098-2.881-6.957l-1.238 1.238c1.528 1.527 2.369 3.558 2.369 5.719v9.412h-5.25v-1.75zm35 1.75v-9.412c0-2.16.84-4.192 2.369-5.72l-1.238-1.237c-1.858 1.859-2.881 4.329-2.881 6.957v9.412h-10.5V33.978c2.617-.294 4.949-1.045 5.787-2.304l5.867 1.565c3.441.918 5.846 4.047 5.846 7.609v2.027h-.875c-1.447 0-2.625 1.178-2.625 2.625V49c0 1.447 1.178 2.625 2.625 2.625h.875v1.75h-5.25zm5.25-8.75v5.25h-.875c-.482 0-.875-.393-.875-.875v-3.5c0-.482.393-.875.875-.875h.875z"/>
    <path fill="#38C046" d="M32.375 44.625h7v-5.25h-7v5.25zm1.75-3.5h3.5v1.75h-3.5v-1.75zM20.125 51.625c1.93 0 3.5-1.57 3.5-3.5s-1.57-3.5-3.5-3.5-3.5 1.57-3.5 3.5 1.57 3.5 3.5 3.5zm0-5.25c.965 0 1.75.785 1.75 1.75s-.785 1.75-1.75 1.75-1.75-.785-1.75-1.75.785-1.75 1.75-1.75zM18.375 37.625h1.75v1.75h-1.75v-1.75zM21.875 37.625h1.75v1.75h-1.75v-1.75zM14.875 37.625h1.75v1.75h-1.75v-1.75zM18.375 41.125h1.75v1.75h-1.75v-1.75zM21.875 41.125h1.75v1.75h-1.75v-1.75zM35.875 46.375h1.75v1.75h-1.75v-1.75zM32.375 46.375h1.75v1.75h-1.75v-1.75zM35.875 49.875h1.75v1.75h-1.75v-1.75zM32.375 49.875h1.75v1.75h-1.75v-1.75zM22.694 12.688l-1.515-.876c-.357.62-.629 1.282-.805 1.97l1.694.437c.137-.536.349-1.05.626-1.531zM20.125 15.75c0 4.342 3.533 7.875 7.875 7.875v-1.75c-3.378 0-6.125-2.747-6.125-6.125h-1.75z"/>
</svg>
