<svg xmlns="http://www.w3.org/2000/svg" width="56" height="56" fill="none" viewBox="0 0 56 56">
    <g fill="#38C046" clip-path="url(#clip0)">
        <path d="M32.444 36.23h-1.742v-1.742h1.742v1.743zm-3.485 0h-1.742v-1.742h1.742v1.743zm-3.485 0h-1.742v-1.742h1.742v1.743z"/>
        <path d="M51.523 41.47v-1.382c0-2.156-.738-4.142-1.972-5.722l1.472-2.3-1.468-.94-1.24 1.937c-1.494-1.302-3.405-2.135-5.505-2.27v-5.818h-1.742V13.652h1.723v1.74h1.742v-5.22h-1.742v1.738h-1.723v-.584C41.068 5.08 35.988 0 29.742 0h-3.484c-6.245 0-11.326 5.08-11.326 11.326v.584H13.19v-1.739h-1.743v5.22h1.743v-1.739h1.742v3.4h1.742v-5.726c0-.462.877-1.128 2.56-1.705-.362 1.003-.55 2.063-.55 3.14v6.343c0 2.144.762 4.222 2.103 5.87h-4.113V18.76h-1.742v6.215h-1.728v5.817c-2.103.132-4.017.964-5.515 2.267l-1.236-1.933-1.468.94 1.469 2.294c-1.237 1.582-1.977 3.57-1.977 5.728V56h47.046V43.27H49.78v2.575h-2.69v1.742h2.69v6.67h-6.09V43.526l4.851-7.582c.782 1.192 1.24 2.616 1.24 4.145v1.381h1.742zM39.326 24.974h-4.13c1.34-1.649 2.103-3.727 2.103-5.871V12.76c0-1.079-.19-2.142-.554-3.147 1.697.58 2.58 1.248 2.58 1.712v13.649zM29.742 1.742c2.405 0 4.603.892 6.287 2.36-2.238-.577-5.057-.908-8.029-.908-2.972 0-5.791.33-8.03.908 1.685-1.468 3.883-2.36 6.288-2.36h3.484zM17.056 8.654c.198-.68.468-1.33.803-1.94C19.895 5.632 23.826 4.938 28 4.938c4.173 0 8.106.694 10.14 1.778.336.609.606 1.259.804 1.94-.546-.29-1.223-.571-2.062-.831-2.385-.738-5.54-1.145-8.882-1.145-3.343 0-6.497.407-8.882 1.145-.839.26-1.516.54-2.062.83zm3.37 10.45V12.76c0-1.309.343-2.59.992-3.727 1.743-.364 3.946-.612 6.582-.612 2.626 0 4.822.247 6.561.608.652 1.139.995 2.42.995 3.73v6.344c0 2.261-1.045 4.435-2.81 5.87h-9.51c-1.765-1.435-2.81-3.609-2.81-5.87zm2.219 7.613H41.068v4.054H14.946v-4.054h7.699zm11.453 24.394v3.147H21.916V51.11h12.182zm-15.044-1.743v-8.712h17.874v8.712H19.054zm2.862-10.454v-6.4h12.182v6.4H21.916zm-8.122-6.4h6.38v6.4h-2.862V51.11h2.862v3.147H14.06V43.015l-5.421-8.47c1.353-1.26 3.165-2.032 5.154-2.032zM6.22 47.625h2.613v-1.742H6.22v-5.796c0-1.532.458-2.958 1.243-4.15l4.855 7.587v10.733H6.22v-6.632zm35.727-4.61v11.242h-6.106V51.11h2.83V38.914h-2.83v-6.4h6.365c1.992 0 3.805.773 5.159 2.035l-5.418 8.466z"/>
        <path d="M23.4 15.222h1.758v1.742H23.4v-1.742zM30.356 15.222h1.757v1.742h-1.757v-1.742zM29.742 42.399h1.743v1.742h-1.743V42.4zM33.227 42.399h1.743v1.742h-1.743V42.4zM29.742 45.883h1.743v1.743h-1.743v-1.742zM33.227 45.883h1.743v1.743h-1.743v-1.742zM21.052 47.471h6.955V42.4h-6.955v5.072zm1.742-3.33h3.47v1.588h-3.47V44.14z"/>
    </g>
    <defs>
        <clipPath id="clip0">
            <path fill="#fff" d="M0 0H56V56H0z"/>
        </clipPath>
    </defs>
</svg>
