<svg xmlns="http://www.w3.org/2000/svg" width="56" height="56" fill="none" viewBox="0 0 56 56">
    <g fill="#38C046" clip-path="url(#clip0)">
        <path d="M28.097 6.891c-3.613-.026-7.042 1.387-9.65 3.977-2.656 2.638-4.119 6.135-4.119 9.847v11.824c0 2.262 1.84 4.102 4.102 4.102h4.156c.754 0 1.367-.614 1.367-1.368v-.82c0-1.094.43-2.118 1.21-2.885.779-.767 1.811-1.184 2.906-1.161 2.193.036 3.978 1.887 3.978 4.126v.74c0 .754.613 1.368 1.367 1.368h4.156c2.262 0 4.102-1.84 4.102-4.102V20.562c0-3.652-1.422-7.085-4.005-9.666-2.556-2.558-5.955-3.98-9.57-4.005zM37.57 35h-3.883v-.467c0-3.129-2.508-5.716-5.591-5.767-1.538-.024-2.989.554-4.084 1.632-1.096 1.078-1.7 2.518-1.7 4.055V35H18.43c-1.357 0-2.461-1.104-2.461-2.46v-9.68h3.103c.816 0 1.543-.52 1.81-1.29l.585-1.698c.038-.11.142-.185.258-.185h12.55c.116 0 .22.075.258.185l.586 1.697c.266.772.993 1.29 1.81 1.29h3.102v9.68c0 1.357-1.104 2.461-2.46 2.461zm2.461-13.781h-3.103c-.116 0-.22-.074-.258-.185l-.586-1.697c-.266-.772-.993-1.29-1.81-1.29H21.726c-.816 0-1.543.518-1.81 1.29l-.585 1.698c-.038.11-.142.184-.258.184h-3.103v-.504c0-3.272 1.29-6.355 3.634-8.683 2.296-2.28 5.308-3.525 8.483-3.5 3.18.022 6.172 1.273 8.421 3.524 2.273 2.271 3.524 5.293 3.524 8.507v.656z"/>
        <path d="M34.508 24.227c-.453 0-.82.367-.82.82v1.64c0 .454.367.82.82.82.453 0 .82-.366.82-.82v-1.64c0-.453-.367-.82-.82-.82zM21.492 24.227c-.453 0-.82.367-.82.82v1.64c0 .454.367.82.82.82.453 0 .82-.366.82-.82v-1.64c0-.453-.367-.82-.82-.82zM28 32.047c-1.327 0-2.406 1.08-2.406 2.406v6.836c0 .754.613 1.367 1.367 1.367h2.078c.754 0 1.367-.613 1.367-1.367v-6.836c0-1.327-1.08-2.406-2.406-2.406zm.766 8.969h-1.532v-6.563c0-.422.344-.766.766-.766.422 0 .766.344.766.766v6.563z"/>
        <path d="M49.151 24.06l-.95-.508c-.166-1.107-.937-2.045-2.023-2.407l-1.225-.408v-.174c0-7.111-4.4-13.212-10.621-15.726.007-.044.012-.088.012-.134v-.601C34.344 1.84 32.504 0 30.242 0h-4.484c-2.262 0-4.102 1.84-4.102 4.102v.601c0 .046.005.09.012.134-6.22 2.514-10.621 8.615-10.621 15.726v.174l-1.225.408c-1.086.362-1.857 1.3-2.022 2.407l-.951.507c-.447.238-.724.7-.724 1.207v4.484c0 .506.277.968.724 1.206l.95.508c.166 1.107.937 2.044 2.023 2.407l1.225.408v3.182c0 2.128.79 4.073 2.09 5.563-3.321 1.565-5.48 4.91-5.48 8.656v1.312c0 1.659 1.348 3.008 3.007 3.008h24.61c.453 0 .82-.367.82-.82 0-.453-.367-.82-.82-.82H15.504l.497-2.214c.142-.629.69-1.068 1.334-1.068H38.66c.646 0 1.194.44 1.335 1.07l.493 2.211h-1.386c-.453 0-.82.367-.82.82 0 .454.367.821.82.821h6.234c1.659 0 3.008-1.35 3.008-3.008V51.68c0-3.724-2.168-7.087-5.482-8.654 1.3-1.49 2.091-3.436 2.091-5.565v-3.182l1.225-.408c1.086-.363 1.857-1.3 2.022-2.408l.951-.507c.447-.238.724-.7.724-1.206v-4.484c0-.506-.277-.969-.724-1.207zM23.297 4.101c0-1.357 1.104-2.461 2.46-2.461h4.485c1.357 0 2.461 1.104 2.461 2.46v.173c-1.494-.432-3.072-.665-4.703-.665-1.631 0-3.21.233-4.703.665v-.172zM46.703 51.68v1.312c0 .754-.613 1.367-1.367 1.367h-3.168l-.572-2.568c-.309-1.386-1.516-2.353-2.936-2.353H17.336c-1.417 0-2.624.965-2.934 2.348l-.579 2.573h-3.159c-.754 0-1.367-.613-1.367-1.367V51.68c0-3.33 2.058-6.278 5.155-7.431 1.415 1.06 3.171 1.688 5.071 1.688h16.954c1.9 0 3.655-.628 5.07-1.687 3.09 1.153 5.156 4.12 5.156 7.43zm-3.39-14.22c0 3.77-3.067 6.837-6.836 6.837H19.523c-3.769 0-6.835-3.067-6.835-6.836V27.327c0-.454-.368-.82-.82-.82-.454 0-.821.366-.821.82v5.222l-.706-.235c-.559-.186-.935-.708-.935-1.297V24c0-.59.376-1.111.935-1.297l.706-.236V23.5c0 .453.367.82.82.82.453 0 .82-.367.82-.82v-2.936c0-8.444 6.87-15.313 15.313-15.313 8.443 0 15.313 6.87 15.313 15.313V37.46zm3.28-6.443c0 .59-.375 1.11-.934 1.297l-.706.235V22.466l.706.235c.559.187.935.708.935 1.297v7.02z"/>
        <path d="M39.43 38.281c-.453 0-.82.367-.82.82v1.641c0 .453.367.82.82.82.453 0 .82-.367.82-.82v-1.64c0-.454-.367-.82-.82-.82zM36.148 38.281c-.453 0-.82.367-.82.82v2.735c0 .453.367.82.82.82.453 0 .82-.367.82-.82v-2.734c0-.454-.367-.82-.82-.82zM32.867 38.281c-.453 0-.82.367-.82.82v2.735c0 .453.367.82.82.82.453 0 .82-.367.82-.82v-2.734c0-.454-.367-.82-.82-.82zM16.57 38.281c-.453 0-.82.367-.82.82v1.641c0 .453.367.82.82.82.453 0 .82-.367.82-.82v-1.64c0-.454-.367-.82-.82-.82zM19.852 38.281c-.454 0-.82.367-.82.82v2.735c0 .453.366.82.82.82.453 0 .82-.367.82-.82v-2.734c0-.454-.367-.82-.82-.82zM23.133 38.281c-.453 0-.82.367-.82.82v2.735c0 .453.367.82.82.82.453 0 .82-.367.82-.82v-2.734c0-.454-.367-.82-.82-.82z"/>
    </g>
    <defs>
        <clipPath id="clip0">
            <path fill="#fff" d="M0 0H56V56H0z"/>
        </clipPath>
    </defs>
</svg>
