<svg xmlns="http://www.w3.org/2000/svg" width="56" height="56" fill="none" viewBox="0 0 56 56">
    <path fill="#38C046" d="M43.88 37.56l-3.01-1.2c4.514-3.777 7.177-9.404 7.177-15.306 0-11.011-8.992-19.969-20.047-19.969-11.054 0-20.047 8.958-20.047 19.97 0 5.9 2.663 11.528 7.177 15.305l-3.01 1.2c-4.237.102-7.653 3.56-7.653 7.804v4.341h.872v5.21h45.323v-5.21h.871v-4.34c0-4.245-3.416-7.703-7.652-7.805zM9.698 21.054c0-10.053 8.21-18.232 18.303-18.232 10.092 0 18.304 8.18 18.304 18.232 0 5.334-2.384 10.42-6.431 13.867-.473-1.1-1.43-1.96-2.654-2.264l-.38-.094c.273-.645.468-1.327.593-2.034 1.58-.33 2.77-1.727 2.77-3.397v-6.078C40.202 14.352 34.73 8.9 28 8.9s-12.202 5.453-12.202 12.155v6.078c0 1.67 1.19 3.067 2.77 3.397.125.707.32 1.39.592 2.034l-.378.094c-1.225.305-2.18 1.164-2.655 2.264-4.047-3.447-6.43-8.533-6.43-13.867zM28 36.682c-4.326 0-7.844-3.505-7.844-7.814v-4.507c2.358-.535 4.62-1.385 6.744-2.533-.243.78-.674 1.502-1.26 2.085l-1.487 1.482h2.104c3.404 0 6.707-.942 9.587-2.73v6.203c0 4.31-3.518 7.814-7.844 7.814zm4.216 4.051l-3.344 1.538v-3.897c.753-.067 1.479-.225 2.173-.457l1.171 2.816zm-5.088-2.359v3.896l-3.53-1.623 1.165-2.8c.751.27 1.542.453 2.365.527zm-9.587-14.232v-3.088c0-5.745 4.692-10.418 10.46-10.418 5.766 0 10.458 4.673 10.458 10.418v3.088c-.27-.157-.561-.28-.871-.36v-4.35l-2.233 1.483c-2.202 1.463-4.7 2.364-7.304 2.648.531-.987.82-2.1.82-3.228v-1.682l-1.867 1.116c-2.137 1.277-4.437 2.22-6.848 2.807v-.654h-1.743v1.86c-.31.08-.602.203-.872.36zm.872 1.495v2.989c-.519-.3-.872-.854-.872-1.494s.353-1.194.872-1.495zm20.046 1.495c0 .64-.353 1.194-.871 1.495v-2.99c.518.301.871.855.871 1.495zM20.013 34.14c.062.093.129.18.194.27l-2.59 2.58c-.042-.172-.076-.346-.076-.527 0-1.005.684-1.878 1.664-2.121l.808-.202zm1.334 1.59c.552.531 1.168.993 1.835 1.381l-1.167 2.808-3.198-1.47c-.044-.02-.079-.055-.12-.078l2.65-2.641zm13.24.059l2.642 2.63c-.017.008-.03.022-.046.03L33.8 40.004l-1.159-2.786c.71-.394 1.362-.877 1.947-1.43zm1.153-1.307c.084-.114.17-.225.247-.342l.81.202c.978.243 1.662 1.116 1.662 2.121 0 .217-.035.43-.096.632l-2.623-2.613zM6.21 45.364c0-3.089 2.328-5.641 5.327-6.022l.575 5.154H7.953v1.737h4.353l.194 1.736H6.21v-2.605zm.872 7.814v-3.473h5.611l.387 3.473H7.082zm20.046 0h-8.715V47.97h8.715v5.21zm14.038 0H28.872V47.97c0-.958-.782-1.736-1.744-1.736h-8.715c-.962 0-1.744.778-1.744 1.736v5.21h-1.834l-1.584-14.2 2.816-1.121c.362.94 1.072 1.733 2.02 2.169L28 44.584l9.914-4.559c.947-.435 1.657-1.227 2.02-2.168l2.815 1.122-1.583 14.198zm7.752 0H42.92l.387-3.473h5.612v3.473zm.872-5.209H43.5l.194-1.736h4.353v-1.737h-4.159l.576-5.154c2.998.38 5.326 2.933 5.326 6.022v2.605z"/>
    <path fill="#38C046" d="M26.155 5.533l.204 1.724c.537-.062 1.09-.094 1.641-.094V5.426c-.619 0-1.24.036-1.845.107zM24.309 5.862C17.244 7.56 12.31 13.806 12.31 21.054h1.744c0-6.443 4.384-11.996 10.663-13.505l-.41-1.687zM36.716 44.496c-1.923 0-3.486 1.558-3.486 3.473 0 1.915 1.563 3.473 3.486 3.473 1.923 0 3.486-1.558 3.486-3.473 0-1.915-1.563-3.473-3.486-3.473zm0 5.21c-.962 0-1.743-.78-1.743-1.737 0-.958.782-1.736 1.743-1.736.961 0 1.743.778 1.743 1.736s-.782 1.736-1.743 1.736zM21.899 49.705h-1.743v1.737h1.743v-1.737zM25.385 49.705h-1.743v1.737h1.743v-1.737zM32.358 27.132c.481 0 .872-.389.872-.868 0-.48-.39-.869-.872-.869-.481 0-.872.39-.872.869 0 .48.39.868.872.868zM23.642 27.132c.482 0 .872-.389.872-.868 0-.48-.39-.869-.872-.869-.481 0-.872.39-.872.869 0 .48.39.868.872.868zM29.743 31.473c0 .958-.782 1.736-1.743 1.736-.961 0-1.743-.779-1.743-1.736h-1.743c0 1.915 1.563 3.473 3.486 3.473 1.923 0 3.486-1.558 3.486-3.473h-1.743z"/>
</svg>
