<svg xmlns="http://www.w3.org/2000/svg" width="56" height="56" fill="none" viewBox="0 0 56 56">
    <path fill="#38C046" d="M55.125 35.875H37.782l1.324-7.936c1.172-.165 2.19-.788 2.874-1.692.007 0 .013.003.02.003 5.307 0 9.625-4.318 9.625-9.625v-3.523c1.056-.8 1.75-2.054 1.75-3.477v-.142l-.92-2.76-1.66.554.827 2.48c-.07 1.386-1.218 2.493-2.622 2.493s-2.552-1.107-2.621-2.493l.826-2.48-1.66-.554-.92 2.76v.142c0 1.424.694 2.678 1.75 3.477v3.62c0 2.36-1.919 4.278-4.277 4.278-.038 0-.076.007-.114.008-.799-1.06-2.057-1.758-3.484-1.758-.46 0-.913.084-1.355.235l-.27-.36c.983-.803 1.625-2.01 1.625-3.375v-.875h.875c1.447 0 2.625-1.178 2.625-2.625v-3.5c0-1.447-1.178-2.625-2.625-2.625H38.5V5.25c0-2.412-1.963-4.375-4.375-4.375h-12.25C19.463.875 17.5 2.838 17.5 5.25v.875h-.875C15.178 6.125 14 7.303 14 8.75v3.5c0 1.447 1.178 2.625 2.625 2.625h.875v.875c0 1.366.642 2.572 1.626 3.375l-.27.36c-.443-.151-.896-.235-1.356-.235-2.412 0-4.375 1.963-4.375 4.375 0 .032.009.061.01.092-1.248 1.706-2.635 4.202-2.635 6.908 0 1.552.625 3.424 1.483 5.25H.875v1.75h12.002c.335.607.685 1.197 1.033 1.75H10.5v15.75h35v-15.75H22.301c-.654-.151-1.332-.151-1.986 0-.145-.16-.301-.312-.484-.434-.29-.193-.675-.677-1.091-1.316h36.385v-1.75zm-15.75-28c.482 0 .875.393.875.875v3.5c0 .482-.393.875-.875.875H38.5v-5.25h.875zm-22.75 5.25c-.482 0-.875-.393-.875-.875v-3.5c0-.482.393-.875.875-.875h.875v5.25h-.875zm31.5 3.598v-2.811c.283.057.576.088.875.088.3 0 .592-.03.875-.088v2.713c0 4.075-3.112 7.437-7.084 7.835.053-.27.084-.549.084-.835 0-.314-.037-.62-.1-.915 3.006-.339 5.35-2.893 5.35-5.987zm-7 6.902c0 1.157-.756 2.129-1.773 2.479.01-.184.023-.367.023-.55 0-1.575-.417-3.138-1.18-4.514.102-.013.203-.04.305-.04 1.447 0 2.625 1.178 2.625 2.625zm-10.5-21l-1.313 1.75h-2.625l-1.312-1.75h5.25zM19.25 5.25c0-1.447 1.178-2.625 2.625-2.625h1.313l2.625 3.5h4.375l2.625-3.5h1.312c1.447 0 2.625 1.178 2.625 2.625v10.5c0 1.447-1.178 2.625-2.625 2.625h-12.25c-1.447 0-2.625-1.178-2.625-2.625V5.25zm14.875 14.875h1.313l.68.907.028.043.005.006c.95 1.288 1.474 2.873 1.474 4.473 0 .413-.035.83-.102 1.24l-1.514 9.081H19.99l-1.514-9.082c-.067-.41-.102-.826-.102-1.239 0-1.388.395-2.765 1.12-3.946l.395-.585.672-.898h13.563zM17.5 21c.102 0 .203.027.305.04-.763 1.376-1.18 2.938-1.18 4.514 0 .18.012.362.023.542-1.028-.356-1.773-1.324-1.773-2.471 0-1.447 1.178-2.625 2.625-2.625zm5.57 20.675l1.17 2.338 1.135-.567v1.179h1.75v-1.75h-1.498l-.875-1.75H43.75v12.25h-31.5v-12.25h2.836c.544.761 1.025 1.363 1.38 1.75h-1.591v1.75h1.75v-1.58c.117.119.22.215.292.263.015.01.032.017.047.026-.08 1.215.325 2.456 1.25 3.382l.102.1 2.602 1.302.783-1.565-2.339-1.17c-.931-1.028-.901-2.624.091-3.617.992-.993 2.588-1.023 3.617-.091zm-4.854-1.147c-.279.279-.495.593-.683.919-1.38-1.666-5.283-7.373-5.283-10.822 0-1.713.71-3.373 1.53-4.728.324.53.748.993 1.26 1.343C14.361 28.46 14 29.6 14 30.625c0 2.156 2.893 8.065 4.618 9.575-.136.107-.277.203-.402.328zm-2.466-9.903c0-.76.327-1.691.918-2.709.073.014.152.012.227.023l1.323 7.936h-.492c-1.034-1.964-1.976-4.29-1.976-5.25z"/>
    <path fill="#38C046" d="M18.375 49.875h1.75v1.75h-1.75v-1.75zM14.875 49.875h1.75v1.75h-1.75v-1.75zM39.375 49.875h1.75v1.75h-1.75v-1.75zM35.875 49.875h1.75v1.75h-1.75v-1.75zM28.875 49.875h1.75v1.75h-1.75v-1.75zM25.375 49.875h1.75v1.75h-1.75v-1.75zM32.375 49.875h1.75v1.75h-1.75v-1.75zM21.875 49.875h1.75v1.75h-1.75v-1.75zM14.875 46.375h1.75v1.75h-1.75v-1.75zM28.875 46.375h1.75v1.75h-1.75v-1.75zM21.875 46.375h1.75v1.75h-1.75v-1.75zM25.375 46.375h1.75v1.75h-1.75v-1.75zM39.375 46.375h1.75v1.75h-1.75v-1.75zM35.875 46.375h1.75v1.75h-1.75v-1.75zM32.375 46.375h1.75v1.75h-1.75v-1.75zM28.875 42.875h1.75v1.75h-1.75v-1.75zM32.375 42.875h1.75v1.75h-1.75v-1.75zM39.375 42.875h1.75v1.75h-1.75v-1.75zM35.875 42.875h1.75v1.75h-1.75v-1.75zM32.375 11.375c1.447 0 2.625-1.178 2.625-2.625s-1.178-2.625-2.625-2.625S29.75 7.303 29.75 8.75s1.178 2.625 2.625 2.625zm0-3.5c.482 0 .875.393.875.875s-.393.875-.875.875-.875-.393-.875-.875.393-.875.875-.875zM23.625 11.375c1.447 0 2.625-1.178 2.625-2.625s-1.178-2.625-2.625-2.625S21 7.303 21 8.75s1.178 2.625 2.625 2.625zm0-3.5c.482 0 .875.393.875.875s-.393.875-.875.875-.875-.393-.875-.875.393-.875.875-.875zM31.476 14.875l-6.976-.024v-1.726h-1.75v1.726c0 .978.796 1.774 1.774 1.774h6.951c.979 0 1.775-.796 1.775-1.774v-1.726H31.5l-.024 1.75zM20.125 28c0 1.447 1.178 2.625 2.625 2.625h10.5c1.447 0 2.625-1.178 2.625-2.625v-3.5c0-1.447-1.178-2.625-2.625-2.625h-10.5c-1.447 0-2.625 1.178-2.625 2.625V28zm1.75-3.5c0-.482.393-.875.875-.875h10.5c.482 0 .875.393.875.875V28c0 .482-.393.875-.875.875h-10.5c-.482 0-.875-.393-.875-.875v-3.5zM25.375 32.375h1.75v1.75h-1.75v-1.75zM21.875 32.375h1.75v1.75h-1.75v-1.75zM32.375 32.375h1.75v1.75h-1.75v-1.75zM28.875 32.375h1.75v1.75h-1.75v-1.75z"/>
</svg>
