<svg xmlns="http://www.w3.org/2000/svg" width="56" height="56" fill="none" viewBox="0 0 56 56">
    <path fill="#38C046" d="M51.625 45.588v-.963c-.003-1.936-.718-3.804-2.008-5.247-1.291-1.443-3.068-2.36-4.992-2.578v-.925c-.001-1.008-.35-1.985-.988-2.766-.637-.78-1.525-1.318-2.512-1.521v-.963h2.625c.232 0 .455-.092.619-.256.164-.164.256-.387.256-.619v-2.625h1.9c.207.584.613 1.076 1.147 1.39.534.313 1.162.427 1.772.322.61-.104 1.164-.422 1.563-.895.4-.474.618-1.073.618-1.692 0-.62-.218-1.218-.618-1.692-.399-.473-.952-.79-1.563-.895-.61-.105-1.238.01-1.772.323s-.94.805-1.146 1.389h-1.901V22.75c0-.232-.092-.455-.256-.619-.164-.164-.387-.256-.619-.256h-2.625v-1.75c0-.696-.278-1.363-.77-1.855s-1.159-.77-1.855-.77h-21c-.696 0-1.363.278-1.855.77s-.77 1.159-.77 1.855v1.75H12.25c-.232 0-.455.092-.619.256-.164.164-.256.387-.256.619v2.625h-1.9c-.207-.584-.613-1.076-1.147-1.39-.534-.313-1.162-.427-1.772-.322-.61.104-1.164.422-1.563.895-.4.474-.618 1.073-.618 1.692 0 .62.219 1.218.618 1.692.399.473.952.79 1.563.895.61.105 1.238-.01 1.772-.323s.94-.805 1.147-1.389h1.9v2.625c0 .232.092.455.256.619.164.164.387.256.619.256h2.625v.963c-.988.203-1.875.74-2.512 1.521-.638.781-.987 1.758-.988 2.766v.925c-1.924.217-3.7 1.135-4.992 2.578-1.29 1.443-2.005 3.31-2.008 5.247v.963c-.987.203-1.875.74-2.512 1.521-.638.781-.987 1.758-.988 2.766v3.5c0 .232.092.455.256.619.164.164.387.256.619.256h3.5c.232 0 .455-.092.619-.256.164-.164.256-.387.256-.619v-1.75c0-.232.092-.455.256-.619.164-.164.387-.256.619-.256.232 0 .455.092.619.256.164.164.256.387.256.619v1.75c0 .232.092.455.256.619.164.164.387.256.619.256h3.5c.232 0 .455-.092.619-.256.164-.164.256-.387.256-.619v-.002c.756.57 1.678.878 2.625.877h24.5c.947.001 1.869-.307 2.625-.877v.002c0 .232.092.455.256.619.164.164.387.256.619.256h3.5c.232 0 .455-.092.619-.256.164-.164.256-.387.256-.619v-1.75c0-.232.092-.455.256-.619.164-.164.387-.256.619-.256.232 0 .455.092.619.256.164.164.256.387.256.619v1.75c0 .232.092.455.256.619.164.164.387.256.619.256h3.5c.232 0 .455-.092.619-.256.164-.164.256-.387.256-.619v-3.5c-.001-1.008-.35-1.985-.988-2.766-.637-.78-1.525-1.318-2.512-1.521zM49 25.375c.173 0 .342.051.486.148.144.096.256.232.322.392.067.16.084.336.05.506-.034.17-.117.325-.24.448-.122.122-.278.205-.447.24-.17.033-.346.016-.506-.05-.16-.067-.296-.179-.392-.323-.097-.144-.148-.313-.148-.486 0-.232.093-.454.257-.618.164-.165.386-.257.618-.257zm-42 1.75c-.173 0-.342-.051-.486-.148-.144-.096-.256-.232-.322-.392-.067-.16-.084-.336-.05-.506.034-.17.117-.325.24-.448.122-.122.278-.205.447-.24.17-.033.346-.016.506.05.16.067.296.179.393.323.096.144.147.313.147.486 0 .232-.093.454-.257.618-.164.165-.386.257-.618.257zm42.875 17.5v.875h-1.75v-.875c-.001-1.008-.35-1.985-.988-2.766-.637-.78-1.525-1.318-2.512-1.521v-1.775c1.457.213 2.789.942 3.753 2.054.964 1.113 1.495 2.536 1.497 4.008zm-5.25-2.474c.511.18.954.516 1.267.96.314.442.482.971.483 1.514v.963c-.635.13-1.233.4-1.75.79V42.15zm-1.75-18.526v5.25h-1.75v-5.25h1.75zM17.5 19.25h21c.232 0 .454.093.618.257.164.164.257.386.257.618V31.5h-3.5v-2.625c0-.232-.092-.455-.256-.619-.164-.164-.387-.256-.619-.256H21c-.232 0-.455.092-.619.256-.164.164-.256.387-.256.619V31.5h-3.5V20.125c0-.232.093-.454.257-.618.164-.165.386-.257.618-.257zM34.125 31.5h-12.25v-1.75h12.25v1.75zm-21-2.625v-5.25h1.75v5.25h-1.75zm-1.75 17.502c-.517-.39-1.115-.66-1.75-.789v-.963c0-.543.17-1.072.483-1.515.313-.443.756-.778 1.267-.96v4.227zm0-7.814v1.775c-.988.203-1.875.74-2.512 1.521-.638.781-.987 1.758-.988 2.766v.875h-1.75v-.875c.002-1.472.533-2.895 1.497-4.008.964-1.112 2.296-1.841 3.753-2.053zm0 13.937h-1.75v-.875c0-.696-.277-1.364-.769-1.856S7.696 49 7 49c-.696 0-1.364.277-1.856.769s-.769 1.16-.769 1.856v.875h-1.75v-2.625c0-.696.278-1.363.77-1.855s1.16-.77 1.855-.77h3.5c.696 0 1.363.278 1.855.77s.77 1.159.77 1.855V52.5zm28.875 0h-24.5c-.696 0-1.363-.278-1.855-.77s-.77-1.159-.77-1.855v-14c0-.696.278-1.363.77-1.855s1.159-.77 1.855-.77h24.5c.696 0 1.363.278 1.855.77s.77 1.159.77 1.855v14c0 .696-.278 1.363-.77 1.855s-1.159.77-1.855.77zm13.125 0h-1.75v-.875c0-.696-.277-1.364-.769-1.856S49.696 49 49 49c-.696 0-1.364.277-1.856.769s-.769 1.16-.769 1.856v.875h-1.75v-2.625c0-.696.278-1.363.77-1.855s1.159-.77 1.855-.77h3.5c.696 0 1.363.278 1.855.77s.77 1.159.77 1.855V52.5z"/>
    <path fill="#38C046" d="M22.75 26.25c.52 0 1.027-.154 1.458-.442.432-.289.769-.699.967-1.178.199-.48.25-1.008.15-1.517-.102-.51-.352-.977-.719-1.344-.367-.367-.835-.617-1.344-.719-.51-.1-1.037-.049-1.517.15-.48.198-.89.535-1.178.967-.288.431-.442.939-.442 1.458 0 .696.278 1.363.77 1.855s1.159.77 1.855.77zm0-3.5c.173 0 .342.051.486.148.144.096.256.232.322.392.067.16.084.336.05.506-.034.17-.117.325-.24.448-.122.122-.278.205-.447.24-.17.033-.346.016-.506-.05-.16-.067-.296-.179-.392-.323-.097-.144-.148-.313-.148-.486 0-.232.093-.454.257-.618.164-.165.386-.257.618-.257zM33.25 26.25c.52 0 1.027-.154 1.458-.442.432-.289.769-.699.967-1.178.199-.48.25-1.008.15-1.517-.102-.51-.352-.977-.719-1.344-.367-.367-.835-.617-1.344-.719-.51-.1-1.037-.049-1.517.15-.48.198-.89.535-1.178.967-.288.431-.442.939-.442 1.458 0 .696.278 1.363.77 1.855s1.159.77 1.855.77zm0-3.5c.173 0 .342.051.486.148.144.096.256.232.322.392.067.16.084.336.05.506-.034.17-.117.325-.24.448-.122.122-.278.205-.447.24-.17.033-.346.016-.506-.05-.16-.067-.296-.179-.392-.323-.097-.144-.148-.313-.148-.486 0-.232.093-.454.257-.618.164-.165.386-.257.618-.257zM28 40.25c-.52 0-1.027.154-1.458.442-.432.289-.769.699-.967 1.178-.199.48-.25 1.008-.15 1.517.102.51.352.977.719 1.344.367.367.835.617 1.344.719.51.1 1.037.049 1.517-.15.48-.198.89-.535 1.178-.967.288-.431.442-.939.442-1.458 0-.696-.278-1.363-.77-1.855s-1.159-.77-1.855-.77zm0 3.5c-.173 0-.342-.051-.486-.148-.144-.096-.256-.232-.322-.392-.067-.16-.084-.336-.05-.506.034-.17.117-.325.24-.448.122-.122.278-.205.447-.24.17-.033.346-.016.506.05.16.067.296.179.392.323.097.144.148.313.148.486 0 .232-.093.454-.257.618-.164.164-.386.257-.618.257zM35.875 15.75c.111 0 .221-.021.325-.063L40.418 14h7.707c.696 0 1.363-.278 1.855-.77s.77-1.159.77-1.855v-7c0-.696-.278-1.363-.77-1.855s-1.16-.77-1.855-.77h-8.75c-.696 0-1.363.278-1.855.77s-.77 1.16-.77 1.855v5.108l-1.705 5.115c-.044.132-.056.272-.035.409.02.137.074.267.155.38.081.112.188.204.311.267.124.063.26.096.399.096zM38.5 4.375c0-.232.093-.454.257-.618.164-.164.386-.257.618-.257h8.75c.232 0 .454.093.618.257.164.164.257.386.257.618v7c0 .232-.093.454-.257.618-.164.165-.386.257-.618.257H40.25c-.111 0-.222.021-.325.063l-2.623 1.049 1.153-3.46c.03-.09.045-.183.045-.277v-5.25z"/>
    <path fill="#38C046" d="M40.25 6.125c0 .232.092.455.256.619.164.164.387.256.619.256h5.25c.232 0 .455-.092.619-.256.164-.164.256-.387.256-.619 0-.232-.092-.455-.256-.619-.164-.164-.387-.256-.619-.256h-5.25c-.232 0-.455.092-.619.256-.164.164-.256.387-.256.619zM46.375 8.75h-5.25c-.232 0-.455.092-.619.256-.164.164-.256.387-.256.619 0 .232.092.455.256.619.164.164.387.256.619.256h5.25c.232 0 .455-.092.619-.256.164-.164.256-.387.256-.619 0-.232-.092-.455-.256-.619-.164-.164-.387-.256-.619-.256z"/>
</svg>
