<svg width="56" height="56" viewBox="0 0 56 56" fill="none" xmlns="http://www.w3.org/2000/svg">
	<path fill-rule="evenodd" clip-rule="evenodd" d="M38.8594 22.5781C38.6838 22.0688 38.4895 21.6142 38.2886 21.2125C38.2582 21.1548 38.2271 21.0973 38.1955 21.0402L38.2001 21.0396C37.8451 20.3622 37.4755 19.846 37.1579 19.48L37.1446 19.4845L37.0539 19.3634C36.8364 19.1263 36.6489 18.9648 36.5156 18.875L36.5167 18.8746C35.9348 18.4956 35.3644 18.375 34.3906 18.375H21.5625C20.2188 18.2656 19.8156 18.4125 19.1406 19.125L18.8452 18.8759C18.9352 18.9626 19.0288 19.0457 19.1257 19.1249L18.8562 19.4845C18.4135 19.334 17.9603 19.25 17.5 19.25C15.0876 19.25 13.125 21.2126 13.125 23.625C13.125 23.6417 13.1275 23.6579 13.1299 23.674C13.1321 23.6883 13.1342 23.7025 13.1346 23.7169C11.8869 25.4231 10.5 27.9186 10.5 30.625C10.5 32.1773 11.1248 34.0489 11.9831 35.875H0.875V37.625H12.8765C13.2125 38.2322 13.5616 38.822 13.9099 39.375H10.5V55.125H45.5V39.375H22.3011C21.6466 39.2236 20.9694 39.2236 20.3149 39.3759C20.1696 39.2149 20.0139 39.0626 19.831 38.941C19.5405 38.7476 19.1555 38.2637 18.7399 37.625H55.125V35.875H37.7825L39.1055 27.9388C39.112 27.9378 39.1185 27.9369 39.125 27.936V27.9062L39.3438 26.1094L39.3529 26.0923L39.3563 26.0332C39.3657 25.8732 39.375 25.7138 39.375 25.5544C39.375 24.6313 39.2318 23.7127 38.96 22.8336C38.9256 22.7578 38.892 22.6728 38.8594 22.5781ZM20.5625 20.125H35.4375L36.1174 21.0324C36.1238 21.041 36.1298 21.0502 36.1356 21.0591C36.1372 21.0617 36.1389 21.0642 36.1405 21.0667C36.1424 21.0696 36.1443 21.0724 36.1463 21.0753L36.1506 21.0814C37.1009 22.3694 37.625 23.954 37.625 25.5544C37.625 25.9674 37.59 26.3839 37.5226 26.7934L36.0089 35.875H19.9911L18.4774 26.7934C18.41 26.3839 18.375 25.9674 18.375 25.5544C18.375 24.1658 18.7705 22.7894 19.495 21.6081L19.8896 21.0227L20.5625 20.125ZM17.5 21C17.5673 21 17.6338 21.0117 17.7006 21.0235C17.7354 21.0296 17.7703 21.0357 17.8054 21.0402C17.0424 22.4157 16.625 23.9776 16.625 25.5544C16.625 25.7126 16.6344 25.8715 16.6438 26.0299L16.6477 26.096C15.6196 25.7399 14.875 24.7721 14.875 23.625C14.875 22.1778 16.0527 21 17.5 21ZM23.0702 41.6745L24.2393 44.0134L25.375 43.4455V44.625H27.125V42.875H25.627L24.752 41.125H43.75V53.375H12.25V41.125H15.0859C15.6301 41.8862 16.1114 42.4882 16.4658 42.875H14.875V44.625H16.625V43.0447C16.7423 43.1637 16.8455 43.26 16.9172 43.3081C16.9247 43.3129 16.9326 43.3171 16.9404 43.3212L16.9512 43.327L16.9592 43.3316L16.9636 43.3344C16.884 44.5489 17.2891 45.7896 18.2149 46.7162L18.3155 46.8169L20.9177 48.118L21.7009 46.5526L19.362 45.3836C18.431 44.3546 18.4608 42.7586 19.453 41.7664C20.4453 40.7732 22.0413 40.7435 23.0702 41.6745ZM18.2158 40.5282C17.9375 40.8065 17.7214 41.1206 17.5333 41.447C16.1525 39.781 12.25 34.0743 12.25 30.625C12.25 28.9118 12.9596 27.2519 13.7795 25.8974C14.1041 26.4276 14.5276 26.8896 15.0404 27.2396C14.3614 28.4611 14 29.6004 14 30.625C14 32.781 16.8927 38.6899 18.6182 40.2001C18.5846 40.2264 18.5505 40.2523 18.5166 40.2779L18.5142 40.2797C18.4115 40.3574 18.3092 40.4348 18.2158 40.5282ZM15.75 30.625C15.75 29.8655 16.0773 28.9336 16.6679 27.916C16.7092 27.9239 16.7523 27.9268 16.7952 27.9297C16.8286 27.9319 16.862 27.9342 16.8945 27.9388L18.2175 35.875H17.7257C16.6924 33.9115 15.75 31.5849 15.75 30.625ZM22.75 30.625C21.3027 30.625 20.125 29.4473 20.125 28V24.5C20.125 23.0528 21.3027 21.875 22.75 21.875H33.25C34.6973 21.875 35.875 23.0528 35.875 24.5V28C35.875 29.4473 34.6973 30.625 33.25 30.625H22.75ZM22.75 23.625C22.2679 23.625 21.875 24.0179 21.875 24.5V28C21.875 28.4821 22.2679 28.875 22.75 28.875H33.25C33.7321 28.875 34.125 28.4821 34.125 28V24.5C34.125 24.0179 33.7321 23.625 33.25 23.625H22.75ZM25.375 32.375H27.125V34.125H25.375V32.375ZM23.625 34.125V32.375H21.875V34.125H23.625ZM34.125 32.375V34.125H32.375V32.375H34.125ZM30.625 32.375H28.875V34.125H30.625V32.375ZM20.125 49.875V51.625H18.375V49.875H20.125ZM16.625 49.875H14.875V51.625H16.625V49.875ZM41.125 49.875V51.625H39.375V49.875H41.125ZM37.625 49.875H35.875V51.625H37.625V49.875ZM28.875 49.875H30.625V51.625H28.875V49.875ZM27.125 49.875H25.375V51.625H27.125V49.875ZM32.375 49.875H34.125V51.625H32.375V49.875ZM23.625 49.875H21.875V51.625H23.625V49.875ZM16.625 46.375V48.125H14.875V46.375H16.625ZM30.625 46.375H28.875V48.125H30.625V46.375ZM21.875 48.125V46.375H23.625V48.125H21.875ZM27.125 46.375H25.375V48.125H27.125V46.375ZM41.125 46.375V48.125H39.375V46.375H41.125ZM37.625 46.375H35.875V48.125H37.625V46.375ZM32.375 46.375H34.125V48.125H32.375V46.375ZM30.625 42.875H28.875V44.625H30.625V42.875ZM32.375 44.625V42.875H34.125V44.625H32.375ZM41.125 44.625V42.875H39.375V44.625H41.125ZM35.875 42.875H37.625V44.625H35.875V42.875Z" fill="#38C046"/>
	<path fill-rule="evenodd" clip-rule="evenodd" d="M39.0384 28.3414L39.1055 27.9388C40.278 27.7743 41.2965 27.1513 41.9799 26.2474C41.9834 26.2474 41.9867 26.248 41.9899 26.2487C41.9922 26.2492 41.9946 26.2496 41.997 26.2499L42 26.25C47.3069 26.25 51.625 21.9319 51.625 16.625V13.1023C52.6811 12.3025 53.375 11.0478 53.375 9.62501V9.48326L52.4554 6.72351L50.7955 7.27739L51.6224 9.75714C51.5524 11.1431 50.4035 12.25 49 12.25C47.5965 12.25 46.4476 11.1431 46.3785 9.75714L47.2054 7.27739L45.5455 6.72351L44.625 9.48326V9.62501C44.625 11.0486 45.3189 12.3034 46.375 13.1023V16.7221C46.375 19.0811 44.4561 21 42.098 21C42.0779 21 42.0576 21.002 42.0373 21.004C42.0196 21.0057 42.0018 21.0075 41.9842 21.0079C41.1854 19.9474 39.9271 19.25 38.5 19.25C38.0464 19.25 37.5996 19.3316 37.1638 19.478C37.4694 19.7976 37.9013 20.3109 38.3051 21.0225C38.3698 21.0111 38.4346 21 38.5 21C39.9473 21 41.125 22.1778 41.125 23.625C41.125 24.7688 40.3858 25.7321 39.3863 26.0919C39.3368 26.789 39.2148 27.5394 39 28.3438C39.0128 28.343 39.0256 28.3421 39.0384 28.3414ZM48.125 13.9116V16.723C48.125 19.817 45.7809 22.3711 42.7753 22.7098C42.8383 23.0055 42.875 23.3109 42.875 23.625C42.875 23.9111 42.8435 24.1894 42.791 24.4598C46.7626 24.0616 49.875 20.6999 49.875 16.625V13.9116C49.5924 13.9694 49.2993 14 49 14C48.7007 14 48.4076 13.9694 48.125 13.9116Z" fill="#38C046"/>
	<path d="M37.0606 19.3724L37.012 19.3075L37 19.3125C37.0193 19.3313 37.0395 19.3513 37.0606 19.3724Z" fill="#38C046"/>
	<path fill-rule="evenodd" clip-rule="evenodd" d="M19.1088 19.1475L19.1257 19.1249C18.1423 18.3216 17.5 17.1159 17.5 15.75V14.875H16.625C15.1777 14.875 14 13.6973 14 12.25V8.75C14 7.30275 15.1777 6.125 16.625 6.125H17.5V5.25C17.5 2.83763 19.4626 0.875 21.875 0.875H34.125C36.5374 0.875 38.5 2.83763 38.5 5.25V6.125H39.375C40.8223 6.125 42 7.30275 42 8.75V12.25C42 13.6973 40.8223 14.875 39.375 14.875H38.5V15.75C38.5 17.1159 37.8577 18.3216 36.8751 19.1249L36.8918 19.1472C36.1242 19.7561 35.1533 20.1198 34.0974 20.1198H21.9028C20.8471 20.1198 19.8763 19.7562 19.1088 19.1475ZM40.25 8.75C40.25 8.26788 39.8571 7.875 39.375 7.875H38.5V13.125H39.375C39.8571 13.125 40.25 12.7321 40.25 12.25V8.75ZM15.75 12.25C15.75 12.7321 16.1429 13.125 16.625 13.125H17.5V7.875H16.625C16.1429 7.875 15.75 8.26788 15.75 8.75V12.25ZM29.3125 4.375L30.625 2.625H25.375L26.6875 4.375H29.3125ZM21.875 2.625C20.4277 2.625 19.25 3.80275 19.25 5.25V15.75C19.25 17.1973 20.4277 18.375 21.875 18.375H34.125C35.5723 18.375 36.75 17.1973 36.75 15.75V5.25C36.75 3.80275 35.5723 2.625 34.125 2.625H32.8125L30.1875 6.125H25.8125L23.1875 2.625H21.875ZM32.375 11.375C33.8223 11.375 35 10.1973 35 8.75C35 7.30275 33.8223 6.125 32.375 6.125C30.9277 6.125 29.75 7.30275 29.75 8.75C29.75 10.1973 30.9277 11.375 32.375 11.375ZM32.375 7.875C32.8571 7.875 33.25 8.26788 33.25 8.75C33.25 9.23213 32.8571 9.625 32.375 9.625C31.8929 9.625 31.5 9.23213 31.5 8.75C31.5 8.26788 31.8929 7.875 32.375 7.875ZM26.25 8.75C26.25 10.1973 25.0723 11.375 23.625 11.375C22.1777 11.375 21 10.1973 21 8.75C21 7.30275 22.1777 6.125 23.625 6.125C25.0723 6.125 26.25 7.30275 26.25 8.75ZM24.5 8.75C24.5 8.26788 24.1071 7.875 23.625 7.875C23.1429 7.875 22.75 8.26788 22.75 8.75C22.75 9.23213 23.1429 9.625 23.625 9.625C24.1071 9.625 24.5 9.23213 24.5 8.75ZM31.4764 14.875L24.5 14.8514V13.125H22.75V14.8514C22.75 15.8287 23.5463 16.625 24.5236 16.625H31.4755C32.4538 16.625 33.25 15.8287 33.25 14.8514V13.125H31.5L31.4764 14.875Z" fill="#38C046"/>
</svg>
