<svg xmlns="http://www.w3.org/2000/svg" width="56" height="56" fill="none" viewBox="0 0 56 56">
    <path fill="#38C046" d="M32.658 10.883h-.569c-.453 0-.82.367-.82.82 0 .453.367.82.82.82h.57c1.92 0 3.483 1.563 3.483 3.485 0 1.92-1.563 3.483-3.484 3.483h-9.316c-1.921 0-3.484-1.563-3.484-3.483 0-1.922 1.563-3.485 3.484-3.485h4.92c.452 0 .82-.367.82-.82 0-.453-.368-.82-.82-.82h-4.92c-2.826 0-5.125 2.299-5.125 5.125 0 2.825 2.299 5.124 5.125 5.124h9.316c2.826 0 5.125-2.299 5.125-5.125 0-2.825-2.299-5.124-5.125-5.124zM29.801 27.797c.453 0 .82-.368.82-.82 0-.454-.367-.82-.82-.82H26.2c-.454 0-.82.366-.82.82 0 .452.366.82.82.82H29.8zM28 5.617c.453 0 .82-.368.82-.82 0-.454-.367-.821-.82-.821-.453 0-.82.367-.82.82 0 .453.367.82.82.82z"/>
    <path fill="#38C046" d="M51.468 38.77c0-3.121-2.54-5.662-5.663-5.662-.875 0-1.727.201-2.497.58-.103-.336-.415-.58-.784-.58h-5.733c-.233 0-.455.1-.61.272l-3.062 3.402v-1.924c.287-.313.287-.794 0-1.107v-2.828c3.89-1.745 6.736-5.415 7.319-9.791h1.011c1.685 0 3.056-1.37 3.056-3.056v-2.585c0-1.685-1.371-3.055-3.056-3.055h-.902C40.486 5.595 34.926 0 28 0c-6.924 0-12.486 5.592-12.547 12.436h-.902c-1.685 0-3.056 1.37-3.056 3.055v2.585c0 1.685 1.371 3.056 3.056 3.056h1.012c.326 2.437 1.362 4.736 2.998 6.603.3.341.818.373 1.157.076.341-.299.375-.817.076-1.158-1.194-1.363-2.02-2.991-2.422-4.734 1.524 1.54 3.637 2.494 5.97 2.494h9.316c2.333 0 4.447-.955 5.972-2.495-1.116 4.838-5.458 8.456-10.63 8.456-1.878 0-3.73-.485-5.354-1.402-.395-.223-.895-.084-1.118.311-.222.394-.083.895.311 1.118.34.191.687.366 1.042.525v2.825c-.287.313-.287.794 0 1.107v1.583l-3.091-3.092c-.154-.154-.363-.24-.58-.24h-5.734c-.37 0-.682.243-.784.578-.77-.378-1.622-.579-2.497-.579-3.122 0-5.663 2.54-5.663 5.663 0 1.622.686 3.087 1.783 4.12-1.029.3-1.783 1.253-1.783 2.378v9.91c0 .454.368.82.82.82h45.295c.453 0 .82-.366.82-.82v-9.91c0-1.125-.753-2.077-1.782-2.378 1.097-1.033 1.783-2.498 1.783-4.12zm-8.604-23.279v2.585c0 .78-.635 1.415-1.415 1.415h-.901v-.582c.573-1.554.667-3.245.292-4.833h.609c.78 0 1.415.635 1.415 1.415zm-4.238-5.397c-1.194-1.206-2.75-2.053-4.49-2.362l1.828-2.636c1.316 1.408 2.231 3.136 2.662 4.998zm-3.881-6.118l-2.516 3.626h-8.458l-2.516-3.626c3.953-3.114 9.538-3.113 13.49 0zm-14.71 1.12l1.83 2.635c-1.74.31-3.297 1.157-4.491 2.363.43-1.862 1.346-3.59 2.662-4.998zm-5.484 14.395c-.78 0-1.415-.634-1.415-1.415v-2.585c0-.78.635-1.415 1.415-1.415h.609c-.374 1.585-.282 3.277.292 4.833v.582h-.901zm18.107 3.282h-9.317c-2.859 0-5.31-1.783-6.298-4.296l-.012-.031c-.597-1.539-.616-3.289 0-4.877l.012-.031c.988-2.51 3.434-4.292 6.29-4.296h9.325c2.828 0 5.298 1.752 6.299 4.296l.012.031c.596 1.538.615 3.289 0 4.877l-.012.031c-.989 2.512-3.44 4.296-6.299 4.296zM49.827 38.77c0 2.217-1.804 4.021-4.021 4.021-.898 0-1.76-.296-2.462-.84v-.967h3.18c1.22 0 2.213-.994 2.213-2.214 0-1.221-.993-2.214-2.214-2.214h-3.179v-.967c.703-.544 1.564-.84 2.462-.84 2.217 0 4.021 1.803 4.021 4.02zm-6.483-.574h3.179c.316 0 .573.258.573.574 0 .316-.257.573-.573.573h-3.179v-1.147zm-18.822-3.072h6.956v2.282h-6.956v-2.282zm6.956-3.6v1.96h-6.956v-1.96c2.272.653 4.69.654 6.956 0zm-18.823 7.819H9.477c-.316 0-.573-.257-.573-.573 0-.316.257-.574.573-.574h3.178v1.147zm-6.482-.573c0-2.218 1.804-4.022 4.022-4.022.897 0 1.758.296 2.46.84v.968H9.477c-1.22 0-2.214.993-2.214 2.214 0 1.22.993 2.214 2.214 2.214h3.178v.966c-.702.545-1.563.841-2.46.841-2.218 0-4.022-1.804-4.022-4.021zm0 6.498c0-.461.375-.836.836-.836h5.646v2.338H6.173v-1.502zm0 3.143h6.482v5.947H6.173v-5.947zm17.06 1.18c0-2.627 2.139-4.766 4.767-4.766 2.628 0 4.767 2.139 4.767 4.767 0 2.628-2.139 4.766-4.767 4.766-2.628 0-4.767-2.138-4.767-4.766zm26.594 4.767h-6.483v-1.88c0-.453-.367-.82-.82-.82-.453 0-.82.367-.82.82v1.88h-9.427c1.307-1.173 2.13-2.875 2.13-4.766 0-3.533-2.874-6.407-6.407-6.407s-6.407 2.874-6.407 6.407c0 1.89.823 3.593 2.13 4.766h-9.427V34.75h4.574l4.058 4.058c.153.154.362.24.58.24h9.414c.232 0 .454-.098.61-.271l3.624-4.027h4.548v13.902c0 .453.367.82.82.82.453 0 .82-.367.82-.82v-.24h6.483v5.948zm-.836-9.926c.46 0 .836.375.836.836v1.502h-6.483v-2.338h5.647z"/>
    <path fill="#38C046" d="M37.22 39.608c-1.5 0-2.722 1.222-2.722 2.723s1.222 2.722 2.723 2.722 2.722-1.22 2.722-2.722c0-1.501-1.221-2.723-2.722-2.723zm0 3.805c-.596 0-1.081-.486-1.081-1.082 0-.597.485-1.082 1.082-1.082.596 0 1.082.485 1.082 1.082 0 .596-.486 1.082-1.082 1.082zM18.78 39.608c-1.502 0-2.723 1.222-2.723 2.723s1.221 2.722 2.722 2.722c1.502 0 2.723-1.22 2.723-2.722 0-1.501-1.222-2.723-2.723-2.723zm0 3.805c-.597 0-1.083-.486-1.083-1.082 0-.597.486-1.082 1.082-1.082.597 0 1.082.485 1.082 1.082 0 .596-.485 1.082-1.082 1.082zM31.673 49.593c0-2.025-1.648-3.673-3.673-3.673-.453 0-.82.367-.82.82 0 .453.367.82.82.82 1.12 0 2.032.912 2.032 2.033 0 .453.367.82.82.82.453 0 .82-.367.82-.82zM30.197 40.346h-4.394c-.453 0-.82.367-.82.82 0 .453.367.82.82.82h4.394c.453 0 .82-.367.82-.82 0-.453-.367-.82-.82-.82z"/>
</svg>
