<svg xmlns="http://www.w3.org/2000/svg" width="56" height="56" fill="none" viewBox="0 0 56 56">
    <path fill="#38C046" d="M43.976 23.625h2.625c.483 0 .875-.392.875-.875v-2.625c0-.483-.392-.875-.875-.875s-.875.392-.875.875v1.75h-1.75c-.483 0-.875.392-.875.875s.392.875.875.875zM23.39 20.125c1.934 0 3.5-1.567 3.5-3.5s-1.566-3.5-3.5-3.5c-1.932 0-3.5 1.567-3.5 3.5s1.568 3.5 3.5 3.5zm0-5.25c.967 0 1.75.784 1.75 1.75s-.783 1.75-1.75 1.75c-.966 0-1.75-.784-1.75-1.75s.784-1.75 1.75-1.75z"/>
    <path fill="#38C046" d="M4.277 19.834c.37.192.782.291 1.199.291 1.114 0 2.105-.707 2.467-1.76l6.882-.107-1.201.992c-.33.272-.416.743-.202 1.113l1.635 2.825.036 3.937h-4.367c-.051.005-.102.015-.152.03-.413-1.216-1.645-1.954-2.913-1.745-1.267.21-2.197 1.305-2.197 2.59s.93 2.38 2.197 2.59c1.268.21 2.5-.53 2.913-1.746.05.016.1.026.152.031h5.25c.233 0 .457-.093.621-.259.165-.166.256-.39.254-.624l-.04-4.434 2.8-1.05c.19.123.383.235.578.337l.59 3.548c.071.421.436.73.864.73h.458v4.375h-2.625c-.483 0-.875.392-.875.875v12.765l-7.619 7.618c-.25.25-.325.627-.19.954.136.327.455.54.809.54h28c.354 0 .673-.213.808-.54.135-.327.06-.703-.19-.954l-5.868-5.868v-4.646l1.959-3.263C39.615 40.974 41.613 42 42.226 42h5.25c.483 0 .875-.392.875-.875v-4.888l1.493-1.492c.163-.165.256-.388.257-.62V31.5h1.278c.593 0 1.145-.3 1.468-.796.322-.497.372-1.123.132-1.665l-2.72-6.125c1.032-1.23 1.596-2.784 1.592-4.39.02-5.79-3.255-11.09-8.444-13.662l-2.537-1.27c-.386-.192-.853-.076-1.103.275l-.366.508h-5.925v-1.75c0-.483-.392-.875-.875-.875h-8.75c-.483 0-.875.392-.875.875v3.5h-1.335c-.428 0-.794.31-.864.731l-.59 3.547c-.196.102-.39.214-.579.338l-3.37-1.263c-.4-.15-.85.011-1.064.382l-.883 1.528c-.022 0-.04-.013-.063-.013H8.976V8.589c1.205-.426 1.928-1.659 1.712-2.919-.216-1.26-1.309-2.18-2.587-2.18-1.279 0-2.371.92-2.587 2.18-.217 1.26.507 2.493 1.712 2.919v3.661c0 .483.392.875.875.875h5.237c-.08.323.03.662.286.875l2.775 2.285c0 .064 0 .13-.005.195l-8.454.13c-.397-1.11-1.486-1.818-2.661-1.732-1.175.085-2.15.942-2.383 2.097-.234 1.156.331 2.325 1.381 2.86zm3.824 9.041c-.483 0-.875-.392-.875-.875s.392-.875.875-.875.875.392.875.875-.392.875-.875.875zm0-23.625c.483 0 .875.392.875.875S8.584 7 8.101 7s-.875-.392-.875-.875.392-.875.875-.875zm15.75 21.875h1.29c.427 0 .792-.309.862-.73l.592-3.548c.194-.101.388-.214.577-.338l3.372 1.263c.4.15.85-.011 1.064-.382l.37-.64h4.123c.065-.005.128-.018.19-.038l1.56 2.08v1.458h-3.5V28h2.019l-2.344.937c-.332.133-.55.455-.55.813v1.75h-9.625v-4.375zm9.508-14.235l-.37-.64h2.237v3.5h-4.19L33.157 14c.329-.272.413-.74.202-1.11zm1.867 4.61V21h-2.237l.37-.64c.211-.37.127-.838-.202-1.11l-2.121-1.75h4.19zm-5.869 21.619l3.244 3.243v.513h-5.25V33.25h1.75v5.25c0 .232.092.455.256.619zM23.811 50.75h.04v-.045l3.284-3.753c.14-.16.216-.365.216-.577v-1.75h1.75V52.5h-6.825l1.535-1.75zM13.713 52.5l6.382-6.381c.164-.164.256-.387.256-.619V33.25h5.25v12.796l-1.75 2V43.75h-1.75v6.3l-2.147 2.45h-6.24zm23.776 0H30.85v-7.875h1.75v2.625c0 .232.092.455.256.619L37.49 52.5zM33.3 40.59l-2.45-2.45v-4.89h2.625v3.5c0 .302.156.582.411.742.326.205.621.385.93.575L33.3 40.59zM40.753 5.49l1.871.937c4.594 2.277 7.494 6.969 7.477 12.096.004 1.354-.534 2.653-1.494 3.607-.256.256-.328.643-.18.974l2.952 6.645h-2.153c-.483 0-.875.392-.875.875v2.625h-.15c-1.354.004-2.652-.534-3.606-1.494-.344-.331-.89-.326-1.227.011-.337.338-.342.883-.01 1.227 1.036 1.04 2.383 1.715 3.837 1.925l-.338.337c-.164.164-.256.387-.256.619v4.375l-4.292.005c-2.021-.935-3.973-2.014-5.84-3.229l-.005-.004h-.005c-.412-.25-.825-.504-1.233-.757v-5.923l3.825-1.529c.332-.133.55-.455.55-.813v-3.5c0-.19-.062-.373-.175-.525l-2.45-3.266v-9.93l3.777-5.288zM24.726 3.5h7v1.75c0 .483.392.875.875.875h5.55L35.39 9.992c-.107.148-.165.326-.164.508h-3.247l-.37-.64c-.215-.37-.665-.532-1.065-.382l-3.368 1.263c-.19-.124-.383-.237-.578-.338l-.595-3.547c-.07-.422-.435-.731-.862-.731h-.415V3.5zm-9.418 9.625l1.009-1.75 3.107 1.165c.28.104.592.06.83-.119.33-.248.687-.456 1.066-.62.273-.118.469-.367.517-.661l.545-3.265H24.4l.544 3.265c.049.294.244.543.518.661.378.165.735.373 1.065.621.238.178.55.223.83.118l3.107-1.165 1.008 1.75-2.56 2.106c-.23.19-.347.483-.312.78.054.408.054.822 0 1.23-.035.296.083.59.313.78l2.56 2.104-1.009 1.75-3.108-1.165c-.279-.104-.59-.06-.83.119-.329.247-.686.456-1.064.62-.274.118-.47.367-.518.661l-.544 3.265h-2.02l-.542-3.265c-.049-.294-.244-.543-.518-.661-.378-.165-.735-.373-1.064-.621-.24-.178-.552-.223-.83-.119l-3.11 1.166-1.008-1.75 2.56-2.106c.015-.015.03-.031.044-.048.017-.016.033-.033.049-.051.065-.07.118-.153.157-.241l.005-.01c.037-.096.056-.199.056-.302.003-.012.006-.025.007-.038 0-.01-.005-.019-.006-.03v-.06c-.054-.408-.054-.822 0-1.23.035-.296-.083-.59-.313-.78l-2.559-2.104zM4.698 17.1c.104-.209.289-.367.51-.437.449-.114.908.14 1.05.58.142.439-.083.913-.513 1.082-.46.148-.953-.105-1.101-.565-.07-.219-.05-.456.054-.66z"/>
    <path fill="#38C046" d="M22.101 36.75h1.75v1.75h-1.75v-1.75zM22.101 40.25h1.75V42h-1.75v-1.75zM27.351 26.25h1.75V28h-1.75v-1.75zM30.851 26.25h1.75V28h-1.75v-1.75zM38.726 10.5h1.75V14h-1.75v-3.5zM38.726 15.75h1.75v1.75h-1.75v-1.75zM38.726 19.25h1.75V21h-1.75v-1.75z"/>
</svg>
